<?xml version="1.0" encoding="utf-8"?>
<!-- Generator: Adobe Illustrator 26.0.2, SVG Export Plug-In . SVG Version: 6.00 Build 0)  -->
<!DOCTYPE svg PUBLIC "-//W3C//DTD SVG 1.1//EN" "http://www.w3.org/Graphics/SVG/1.1/DTD/svg11.dtd" [
	<!ENTITY ns_flows "http://ns.adobe.com/Flows/1.0/">
	<!ENTITY ns_extend "http://ns.adobe.com/Extensibility/1.0/">
	<!ENTITY ns_ai "http://ns.adobe.com/AdobeIllustrator/10.0/">
	<!ENTITY ns_graphs "http://ns.adobe.com/Graphs/1.0/">
	<!ENTITY ns_vars "http://ns.adobe.com/Variables/1.0/">
	<!ENTITY ns_imrep "http://ns.adobe.com/ImageReplacement/1.0/">
	<!ENTITY ns_sfw "http://ns.adobe.com/SaveForWeb/1.0/">
	<!ENTITY ns_custom "http://ns.adobe.com/GenericCustomNamespace/1.0/">
	<!ENTITY ns_adobe_xpath "http://ns.adobe.com/XPath/1.0/">
]>
<svg version="1.1" xmlns:x="&ns_extend;" xmlns:i="&ns_ai;" xmlns:graph="&ns_graphs;"
	 xmlns="http://www.w3.org/2000/svg" xmlns:xlink="http://www.w3.org/1999/xlink" xmlns:a="http://ns.adobe.com/AdobeSVGViewerExtensions/3.0/"
	 x="0px" y="0px" width="750px" height="750px" viewBox="0 0 750 750" enable-background="new 0 0 750 750" xml:space="preserve">
<metadata>
	<sfw  xmlns="&ns_sfw;">
		<slices></slices>
		<sliceSourceBounds  bottomLeftOrigin="true" height="13604.938" width="11655.564" x="-4926.958" y="-6175"></sliceSourceBounds>
	</sfw>
</metadata>
<g id="FILL-BACKGROUND">
	<rect fill="#FFFFFF" width="750" height="750"/>
</g>
<g id="N-DIMENSIONS">
</g>
<g id="N-TEXT">
</g>
<g id="AG-ANIMALS">
</g>
<g id="AG-PEOPLE">
</g>
<g id="AG-DETAILS">
	<g id="POLYLINE_3172_">
		
			<rect x="101.789" y="170.092" fill="none" stroke="#3A54F5" stroke-width="2" stroke-linecap="round" stroke-linejoin="round" stroke-miterlimit="10" width="546.422" height="409.817"/>
	</g>
</g>
<g id="AG-FURNITURE">
	<g id="POLYLINE_3171_">
		
			<rect x="329.465" y="283.944" fill="none" stroke="#3A54F5" stroke-width="2.75" stroke-linecap="round" stroke-linejoin="round" stroke-miterlimit="10" width="91.07" height="182.141"/>
	</g>
	<g id="POLYLINE_3170_">
		
			<path fill="none" stroke="#3A54F5" stroke-width="2.75" stroke-linecap="round" stroke-linejoin="round" stroke-miterlimit="10" d="
			M256.364,521.102c2.252-0.004,4.264-1.645,4.705-3.862c0.225-1.133,0.092-2.393,0.092-3.536c0-3.042,0-6.085,0-9.127
			c0-4.556,0-9.111,0-13.667c0-5.335,0-10.67,0-16.005c0-5.449,0-10.899,0-16.348c0-4.832,0-9.664,0-14.495
			c0-3.503,0-7.006,0-10.509c0-1.462,0.022-2.927,0-4.389c-0.033-2.164-1.459-4.112-3.589-4.666
			c-0.394-0.103-0.801-0.154-1.208-0.155c2.294-0.004,4.331-1.706,4.726-3.974c0.198-1.138,0.071-2.383,0.071-3.528
			c0-3.041,0-6.083,0-9.124c0-4.555,0-9.11,0-13.664c0-5.345,0-10.691,0-16.036c0-5.491,0-10.982,0-16.473c0-4.924,0-9.848,0-14.772
			c0-3.654,0-7.308,0-10.963c0-1.725,0.009-3.45,0-5.176c-0.011-2.055-1.173-3.931-3.143-4.655
			c-0.529-0.194-1.091-0.294-1.655-0.294c2.286-0.004,4.319-1.694,4.723-3.953c0.204-1.142,0.075-2.396,0.075-3.547
			c0-3.073,0-6.146,0-9.219c0-4.575,0-9.149,0-13.724c0-5.342,0-10.684,0-16.026c0-5.445,0-10.89,0-16.335c0-4.816,0-9.631,0-14.447
			c0-3.475,0-6.95,0-10.425c0-1.423,0.023-2.848,0-4.27c-0.035-2.155-1.458-4.096-3.576-4.653c-0.398-0.105-0.81-0.158-1.221-0.158"
			/>
	</g>
	<g id="POLYLINE_3169_">
		
			<path fill="none" stroke="#3A54F5" stroke-width="2.75" stroke-linecap="round" stroke-linejoin="round" stroke-miterlimit="10" d="
			M166.906,424.344c3.566-0.005,5.725-3.088,6.966-6.071c1.607-3.863,2.267-8.121,2.745-12.253
			c0.514-4.444,0.739-8.915,0.885-13.385c0.156-4.765,0.134-9.535,0.16-14.302c0.025-4.606-0.014-9.211-0.039-13.816
			c-0.022-4.105-0.123-8.209-0.34-12.308c-0.229-4.34-0.592-8.695-1.365-12.975c-0.681-3.77-1.608-8.018-4.101-11.049
			c-0.968-1.177-2.24-2.098-3.756-2.392c-1.338-0.259-2.836-0.109-4.196-0.109c-5.127,0-10.255-0.033-15.382,0
			c-2.943,0.019-5.538,0.985-7.126,3.592c-2.007,3.295-2.411,7.537-2.762,11.292c-0.42,4.487-0.518,8.998-0.603,13.502
			c-0.089,4.749-0.065,9.5-0.083,14.25c-0.014,3.728-0.022,7.455-0.008,11.183c0.018,4.913-0.016,9.829,0.056,14.741
			c0.067,4.56,0.155,9.125,0.496,13.674c0.298,3.977,0.625,8.339,2.399,11.979c1.299,2.663,3.555,4.166,6.491,4.403
			c1.68,0.135,3.397,0.043,5.08,0.043c3.231,0,6.462,0,9.692,0C163.713,424.344,165.31,424.34,166.906,424.344z"/>
	</g>
	<g id="POLYLINE_3168_">
		
			<path fill="none" stroke="#3A54F5" stroke-width="2.75" stroke-linecap="round" stroke-linejoin="round" stroke-miterlimit="10" d="
			M166.906,325.684c3.452-0.004,5.629-2.826,6.903-5.727c1.677-3.819,2.336-8.077,2.823-12.19c0.52-4.388,0.75-8.813,0.879-13.228
			c0.14-4.788,0.128-9.578,0.154-14.368c0.025-4.51-0.018-9.02-0.043-13.53c-0.023-4.12-0.138-8.238-0.363-12.352
			c-0.231-4.223-0.616-8.468-1.418-12.624c-0.703-3.643-1.68-7.81-4.279-10.611c-1.01-1.089-2.31-1.869-3.796-2.071
			c-1.381-0.188-2.883-0.057-4.275-0.057c-5.025,0-10.051-0.042-15.075,0.001c-2.93,0.025-5.513,1.02-7.088,3.611
			c-1.965,3.232-2.38,7.378-2.731,11.062c-0.42,4.408-0.52,8.84-0.604,13.265c-0.09,4.72-0.066,9.443-0.084,14.164
			c-0.014,3.697-0.02,7.393-0.006,11.089c0.018,4.773-0.03,9.552,0.062,14.324c0.087,4.582,0.162,9.168,0.544,13.738
			c0.316,3.78,0.681,7.948,2.479,11.362c1.356,2.575,3.664,3.922,6.53,4.111c1.685,0.111,3.396,0.031,5.082,0.031
			c3.191,0,6.382,0,9.573,0C163.751,325.684,165.329,325.68,166.906,325.684z"/>
	</g>
	<g id="POLYLINE_3167_">
		
			<path fill="none" stroke="#3A54F5" stroke-width="2.75" stroke-linecap="round" stroke-linejoin="round" stroke-miterlimit="10" d="
			M166.906,424.344c3.452,0.004,5.629,2.826,6.903,5.727c1.677,3.819,2.336,8.077,2.823,12.19c0.52,4.388,0.75,8.813,0.879,13.228
			c0.14,4.788,0.128,9.578,0.154,14.368c0.025,4.51-0.018,9.02-0.043,13.53c-0.023,4.12-0.138,8.238-0.363,12.352
			c-0.231,4.223-0.616,8.468-1.418,12.624c-0.703,3.643-1.68,7.81-4.279,10.611c-1.01,1.089-2.31,1.869-3.796,2.071
			c-1.381,0.188-2.883,0.057-4.275,0.057c-5.025,0-10.051,0.042-15.075,0c-2.93-0.025-5.513-1.02-7.088-3.611
			c-1.965-3.232-2.38-7.378-2.731-11.062c-0.42-4.408-0.52-8.84-0.604-13.265c-0.09-4.72-0.066-9.443-0.084-14.164
			c-0.014-3.697-0.02-7.393-0.006-11.089c0.018-4.773-0.03-9.552,0.062-14.324c0.087-4.582,0.162-9.168,0.544-13.738
			c0.316-3.78,0.681-7.948,2.479-11.362c1.356-2.575,3.664-3.922,6.53-4.111c1.685-0.111,3.396-0.031,5.082-0.031
			c3.191,0,6.382,0,9.573,0C163.751,424.344,165.329,424.348,166.906,424.344z"/>
	</g>
	<g id="POLYLINE_3166_">
		
			<line fill="none" stroke="#3A54F5" stroke-width="2.75" stroke-linecap="round" stroke-linejoin="round" stroke-miterlimit="10" x1="256.364" y1="325.684" x2="166.906" y2="325.684"/>
	</g>
	<g id="POLYLINE_3165_">
		
			<line fill="none" stroke="#3A54F5" stroke-width="2.75" stroke-linecap="round" stroke-linejoin="round" stroke-miterlimit="10" x1="256.364" y1="424.344" x2="166.906" y2="424.344"/>
	</g>
	<g id="POLYLINE_3164_">
		
			<path fill="none" stroke="#3A54F5" stroke-width="2.75" stroke-linecap="round" stroke-linejoin="round" stroke-miterlimit="10" d="
			M124.557,228.898c0-2.699,0-5.399,0-8.098c0-1.485,0-2.969,0-4.454c0-0.709,0-1.401,0.266-2.073
			c0.577-1.458,1.982-2.364,3.53-2.398c0.465-0.01,0.932,0,1.398,0c3.184,0,6.367,0,9.551,0c5.521,0,11.042,0,16.562,0
			c6.987,0,13.975,0,20.962,0c7.571,0,15.143,0,22.714,0c7.322,0,14.644,0,21.966,0c6.236,0,12.473,0,18.709,0
			c4.259,0,8.518,0,12.777,0c1.127,0,2.254,0,3.382,0c0.637,0,1.298-0.042,1.92,0.115c1.422,0.359,2.536,1.546,2.803,2.989
			c0.182,0.982,0.063,2.067,0.063,3.057c0,1.795,0,3.591,0,5.386c0,1.697,0.081,3.361-1.328,4.567
			c-0.769,0.658-1.707,0.908-2.701,0.911c-2.73,0.008-5.461,0-8.191,0c-5.553,0-11.106,0-16.66,0c-7.169,0-14.338,0-21.507,0
			c-7.536,0-15.073,0-22.609,0c-6.796,0-13.591,0-20.387,0c-4.805,0-9.611,0-14.416,0c-1.693,0-3.387,0-5.08,0
			c-6.106,0-12.212,0-18.317-0.001C128.163,228.898,126.36,228.898,124.557,228.898z"/>
	</g>
	<g id="POLYLINE_3163_">
		
			<line fill="none" stroke="#3A54F5" stroke-width="2.75" stroke-linecap="round" stroke-linejoin="round" stroke-miterlimit="10" x1="124.557" y1="521.102" x2="124.557" y2="228.898"/>
	</g>
	<g id="POLYLINE_3162_">
		
			<path fill="none" stroke="#3A54F5" stroke-width="2.75" stroke-linecap="round" stroke-linejoin="round" stroke-miterlimit="10" d="
			M148.48,521.102c1.947,0,3.895,0,5.842,0c5.037,0,10.074,0,15.111,0c6.875,0,13.751,0,20.626,0c7.595,0,15.189,0,22.784,0
			c7.07,0,14.14,0,21.211,0c5.326,0,10.653,0,15.979,0c2.408,0,4.818-0.027,7.225,0c1.257,0.014,2.421,0.526,3.174,1.558
			c1.146,1.57,0.729,3.934,0.729,5.742c0,1.7,0,3.401,0,5.101c0,0.783,0.016,1.548-0.291,2.287c-0.593,1.426-1.98,2.304-3.506,2.338
			c-1.725,0.038-3.455,0-5.181,0c-4.479,0-8.958,0-13.436,0c-6.349,0-12.699,0-19.048,0c-7.377,0-14.755,0-22.132,0
			c-7.575,0-15.15,0-22.725,0c-6.892,0-13.783,0-20.675,0c-5.322,0-10.645,0-15.967,0c-2.961,0-5.923,0-8.884,0
			c-0.639,0-1.298,0.04-1.921-0.122c-1.441-0.375-2.555-1.6-2.791-3.07c-0.129-0.801-0.048-1.664-0.048-2.47
			c0-1.741,0-3.482,0-5.223c0-1.622,0-3.244,0-4.867c0-0.244-0.131-0.969,0-1.185c0.083-0.136-0.008-0.033,0.196-0.088
			c0.275-0.075,0.678,0,0.962,0c0.545,0,1.089,0,1.634,0c1.566,0,3.132,0,4.698,0c3.675,0,7.349,0,11.024,0
			C144.873,521.102,146.677,521.102,148.48,521.102z"/>
	</g>
	<g id="POLYLINE_3161_">
		
			<path fill="none" stroke="#3A54F5" stroke-width="2.75" stroke-linecap="round" stroke-linejoin="round" stroke-miterlimit="10" d="
			M601.52,521.102c-1.947,0-3.895,0-5.842,0c-5.037,0-10.074,0-15.111,0c-6.875,0-13.751,0-20.626,0c-7.595,0-15.189,0-22.784,0
			c-7.07,0-14.14,0-21.211,0c-5.326,0-10.653,0-15.979,0c-2.408,0-4.818-0.027-7.225,0c-1.257,0.014-2.421,0.526-3.174,1.558
			c-1.146,1.57-0.729,3.934-0.729,5.742c0,1.7,0,3.401,0,5.101c0,0.783-0.016,1.548,0.291,2.287c0.593,1.426,1.98,2.304,3.506,2.338
			c1.725,0.038,3.455,0,5.181,0c4.479,0,8.958,0,13.436,0c6.349,0,12.699,0,19.048,0c7.377,0,14.755,0,22.132,0
			c7.575,0,15.15,0,22.725,0c6.892,0,13.783,0,20.675,0c5.322,0,10.645,0,15.967,0c2.961,0,5.923,0,8.884,0
			c0.639,0,1.298,0.04,1.921-0.122c1.441-0.375,2.555-1.6,2.791-3.07c0.129-0.801,0.048-1.664,0.048-2.47c0-1.741,0-3.482,0-5.223
			c0-1.622,0-3.244,0-4.867c0-0.244,0.131-0.969,0-1.185c-0.083-0.136,0.008-0.033-0.196-0.088c-0.275-0.075-0.678,0-0.962,0
			c-0.545,0-1.089,0-1.634,0c-1.566,0-3.132,0-4.698,0c-3.675,0-7.349,0-11.024,0C605.127,521.102,603.323,521.102,601.52,521.102z"
			/>
	</g>
	<g id="POLYLINE_3160_">
		
			<line fill="none" stroke="#3A54F5" stroke-width="2.75" stroke-linecap="round" stroke-linejoin="round" stroke-miterlimit="10" x1="625.443" y1="521.102" x2="625.443" y2="228.898"/>
	</g>
	<g id="POLYLINE_3159_">
		
			<path fill="none" stroke="#3A54F5" stroke-width="2.75" stroke-linecap="round" stroke-linejoin="round" stroke-miterlimit="10" d="
			M625.443,228.898c0-2.699,0-5.399,0-8.098c0-1.485,0-2.969,0-4.454c0-0.709,0-1.401-0.266-2.073
			c-0.577-1.458-1.982-2.364-3.53-2.398c-0.465-0.01-0.932,0-1.398,0c-3.184,0-6.367,0-9.551,0c-5.521,0-11.042,0-16.562,0
			c-6.987,0-13.975,0-20.962,0c-7.571,0-15.143,0-22.714,0c-7.322,0-14.644,0-21.966,0c-6.236,0-12.473,0-18.709,0
			c-4.259,0-8.518,0-12.777,0c-1.127,0-2.254,0-3.382,0c-0.637,0-1.298-0.042-1.92,0.115c-1.422,0.359-2.536,1.546-2.803,2.989
			c-0.182,0.982-0.063,2.067-0.063,3.057c0,1.795,0,3.591,0,5.386c0,1.697-0.081,3.361,1.328,4.567
			c0.769,0.658,1.707,0.908,2.701,0.911c2.73,0.008,5.461,0,8.191,0c5.553,0,11.106,0,16.66,0c7.169,0,14.338,0,21.507,0
			c7.536,0,15.073,0,22.609,0c6.796,0,13.591,0,20.387,0c4.805,0,9.611,0,14.416,0c1.693,0,3.387,0,5.08,0
			c6.106,0,12.212,0,18.317-0.001C621.837,228.898,623.64,228.898,625.443,228.898z"/>
	</g>
	<g id="POLYLINE_3158_">
		
			<line fill="none" stroke="#3A54F5" stroke-width="2.75" stroke-linecap="round" stroke-linejoin="round" stroke-miterlimit="10" x1="493.636" y1="424.344" x2="583.094" y2="424.344"/>
	</g>
	<g id="POLYLINE_3157_">
		
			<line fill="none" stroke="#3A54F5" stroke-width="2.75" stroke-linecap="round" stroke-linejoin="round" stroke-miterlimit="10" x1="493.636" y1="325.684" x2="583.094" y2="325.684"/>
	</g>
	<g id="POLYLINE_3156_">
		
			<path fill="none" stroke="#3A54F5" stroke-width="2.75" stroke-linecap="round" stroke-linejoin="round" stroke-miterlimit="10" d="
			M583.094,424.344c-3.452,0.004-5.629,2.826-6.903,5.727c-1.677,3.819-2.336,8.077-2.823,12.19
			c-0.52,4.388-0.75,8.813-0.879,13.228c-0.14,4.788-0.128,9.578-0.154,14.368c-0.025,4.51,0.018,9.02,0.043,13.53
			c0.023,4.12,0.138,8.238,0.363,12.352c0.231,4.223,0.616,8.468,1.418,12.624c0.703,3.643,1.68,7.81,4.279,10.611
			c1.01,1.089,2.31,1.869,3.796,2.071c1.381,0.188,2.883,0.057,4.275,0.057c5.024,0,10.051,0.042,15.075,0
			c2.93-0.025,5.513-1.02,7.088-3.611c1.965-3.232,2.38-7.378,2.731-11.062c0.42-4.408,0.52-8.84,0.604-13.265
			c0.09-4.72,0.066-9.443,0.084-14.164c0.014-3.697,0.02-7.393,0.006-11.089c-0.018-4.773,0.03-9.552-0.061-14.324
			c-0.087-4.582-0.162-9.168-0.544-13.738c-0.316-3.78-0.681-7.948-2.479-11.362c-1.356-2.575-3.664-3.922-6.53-4.111
			c-1.685-0.111-3.396-0.031-5.082-0.031c-3.191,0-6.382,0-9.573,0C586.25,424.344,584.671,424.348,583.094,424.344z"/>
	</g>
	<g id="POLYLINE_3155_">
		
			<path fill="none" stroke="#3A54F5" stroke-width="2.75" stroke-linecap="round" stroke-linejoin="round" stroke-miterlimit="10" d="
			M583.094,325.684c-3.452-0.004-5.629-2.826-6.903-5.727c-1.677-3.819-2.336-8.077-2.823-12.19
			c-0.52-4.388-0.75-8.813-0.879-13.228c-0.14-4.788-0.128-9.578-0.154-14.368c-0.025-4.51,0.018-9.02,0.043-13.53
			c0.023-4.12,0.138-8.238,0.363-12.352c0.231-4.223,0.616-8.468,1.418-12.624c0.703-3.643,1.68-7.81,4.279-10.611
			c1.01-1.089,2.31-1.869,3.796-2.071c1.381-0.188,2.883-0.057,4.275-0.057c5.024,0,10.051-0.042,15.075,0.001
			c2.93,0.025,5.513,1.02,7.088,3.611c1.965,3.232,2.38,7.378,2.731,11.062c0.42,4.408,0.52,8.84,0.604,13.265
			c0.09,4.72,0.066,9.443,0.084,14.164c0.014,3.697,0.02,7.393,0.006,11.089c-0.018,4.773,0.03,9.552-0.061,14.324
			c-0.087,4.582-0.162,9.168-0.544,13.738c-0.316,3.78-0.681,7.948-2.479,11.362c-1.356,2.575-3.664,3.922-6.53,4.111
			c-1.685,0.111-3.396,0.031-5.082,0.031c-3.191,0-6.382,0-9.573,0C586.25,325.684,584.671,325.68,583.094,325.684z"/>
	</g>
	<g id="POLYLINE_3154_">
		
			<path fill="none" stroke="#3A54F5" stroke-width="2.75" stroke-linecap="round" stroke-linejoin="round" stroke-miterlimit="10" d="
			M583.094,424.344c-3.566-0.005-5.725-3.088-6.966-6.071c-1.607-3.863-2.267-8.121-2.745-12.253
			c-0.514-4.444-0.739-8.915-0.885-13.385c-0.156-4.765-0.134-9.535-0.16-14.302c-0.025-4.606,0.014-9.211,0.039-13.816
			c0.022-4.105,0.123-8.209,0.34-12.308c0.229-4.34,0.592-8.695,1.365-12.975c0.681-3.77,1.608-8.018,4.101-11.049
			c0.968-1.177,2.24-2.098,3.756-2.392c1.338-0.259,2.836-0.109,4.196-0.109c5.127,0,10.255-0.033,15.382,0
			c2.943,0.019,5.538,0.985,7.126,3.592c2.007,3.295,2.411,7.537,2.762,11.292c0.42,4.487,0.518,8.998,0.603,13.502
			c0.089,4.749,0.065,9.5,0.083,14.25c0.014,3.728,0.022,7.455,0.008,11.183c-0.018,4.913,0.016,9.829-0.056,14.741
			c-0.067,4.56-0.155,9.125-0.496,13.674c-0.298,3.977-0.625,8.339-2.399,11.979c-1.299,2.663-3.555,4.166-6.491,4.403
			c-1.68,0.135-3.397,0.043-5.08,0.043c-3.231,0-6.462,0-9.692,0C586.287,424.344,584.69,424.34,583.094,424.344z"/>
	</g>
	<g id="POLYLINE_3153_">
		
			<path fill="none" stroke="#3A54F5" stroke-width="2.75" stroke-linecap="round" stroke-linejoin="round" stroke-miterlimit="10" d="
			M493.636,521.102c-2.252-0.004-4.264-1.645-4.705-3.862c-0.225-1.133-0.092-2.393-0.092-3.536c0-3.042,0-6.085,0-9.127
			c0-4.556,0-9.111,0-13.667c0-5.335,0-10.67,0-16.005c0-5.449,0-10.899,0-16.348c0-4.832,0-9.664,0-14.495
			c0-3.503,0-7.006,0-10.509c0-1.462-0.022-2.927,0-4.389c0.033-2.164,1.459-4.112,3.589-4.666c0.394-0.103,0.801-0.154,1.208-0.155
			c-2.294-0.004-4.331-1.706-4.726-3.974c-0.198-1.138-0.071-2.383-0.071-3.528c0-3.041,0-6.083,0-9.124c0-4.555,0-9.11,0-13.664
			c0-5.345,0-10.691,0-16.036c0-5.491,0-10.982,0-16.473c0-4.924,0-9.848,0-14.772c0-3.654,0-7.308,0-10.963
			c0-1.725-0.009-3.45,0-5.176c0.011-2.055,1.173-3.931,3.143-4.655c0.529-0.194,1.091-0.294,1.655-0.294
			c-2.286-0.004-4.319-1.694-4.723-3.953c-0.204-1.142-0.075-2.396-0.075-3.547c0-3.073,0-6.146,0-9.219c0-4.575,0-9.149,0-13.724
			c0-5.342,0-10.684,0-16.026c0-5.445,0-10.89,0-16.335c0-4.816,0-9.631,0-14.447c0-3.475,0-6.95,0-10.425
			c0-1.423-0.023-2.848,0-4.27c0.035-2.155,1.458-4.096,3.576-4.653c0.398-0.105,0.81-0.158,1.221-0.158"/>
	</g>
</g>
<g id="AG-OUTLINE">
	<g id="POLYLINE_2824_">
		
			<path fill="none" stroke="#3A54F5" stroke-width="3.5" stroke-linecap="round" stroke-linejoin="round" stroke-miterlimit="10" d="
			M493.636,521.102c-1.836,0-3.536,0.323-4.417,2.137c-0.361,0.744-0.381,1.523-0.381,2.331c0,1.752,0,3.504,0,5.257
			c0,1.856-0.431,4.266,0.809,5.847c0.773,0.986,1.914,1.446,3.146,1.453c2.375,0.014,4.751,0,7.126,0c5.191,0,10.382,0,15.573,0
			c7.005,0,14.009,0,21.013,0c7.903,0,15.805,0,23.708,0c7.734,0,15.469,0,23.203,0c6.654,0,13.307,0,19.961,0
			c4.57,0,9.14,0,13.709,0c1.199,0,2.399,0,3.598,0c0.694,0,1.397,0.041,2.07-0.165c1.606-0.489,2.652-1.973,2.69-3.63
			c0.065-2.872,0-5.753,0-8.625c0-1.914,0-3.828,0-5.742c0-1.901,0-3.802,0-5.704c0-3.331,0-6.661,0-9.992c0-4.554,0-9.108,0-13.662
			c0-5.63,0-11.26,0-16.89c0-6.452,0-12.904,0-19.355c0-7.134,0-14.268,0-21.403c0-7.608,0-15.216,0-22.824
			c0-7.868,0-15.736,0-23.604c0-8.005,0-16.01,0-24.015c0-7.86,0-15.721,0-23.581c0-7.572,0-15.144,0-22.715
			c0-7.132,0-14.265,0-21.397c0-6.421,0-12.843,0-19.264c0-5.592,0-11.184,0-16.776c0-4.508,0-9.017,0-13.525c0-3.27,0-6.54,0-9.809
			c0-1.848,0-3.695,0-5.543c0-2.179,0-4.359,0-6.538c0-1.86,0-3.719,0-5.579c0-0.886,0.094-1.84-0.048-2.721
			c-0.252-1.565-1.497-2.84-3.056-3.129c-0.598-0.111-1.243-0.063-1.849-0.063c-1.265,0-2.53,0-3.795,0c-4.655,0-9.31,0-13.965,0
			c-6.733,0-13.466,0-20.199,0c-7.758,0-15.516,0-23.274,0c-7.866,0-15.731,0-23.597,0c-6.972,0-13.943,0-20.915,0
			c-5.086,0-10.173,0-15.259,0c-2.253,0-4.508-0.028-6.761,0c-1.307,0.016-2.516,0.587-3.252,1.693
			c-0.438,0.659-0.625,1.405-0.635,2.192c-0.019,1.451,0,2.904,0,4.355c0,1.547,0,3.095,0,4.642c0,0.732,0.083,1.432,0.424,2.091
			c0.912,1.763,2.566,2.029,4.374,2.065c-2.424,0.02-4.516,1.888-4.771,4.308c-0.126,1.192-0.027,2.436-0.027,3.631
			c0,3.094,0,6.189,0,9.283c0,4.495,0,8.99,0,13.485c0,5.236,0,10.471,0,15.707c0,5.316,0,10.633,0,15.949c0,4.737,0,9.474,0,14.211
			c0,3.498,0,6.996,0,10.495c0,1.599-0.016,3.199,0,4.798c0.021,2.067,1.23,3.944,3.219,4.637c0.507,0.177,1.042,0.267,1.578,0.267
			c-2.464,0.014-4.578,1.939-4.781,4.404c-0.1,1.216-0.016,2.468-0.016,3.686c0,3.171,0,6.343,0,9.514c0,4.584,0,9.169,0,13.753
			c0,5.331,0,10.662,0,15.993c0,5.411,0,10.822,0,16.233c0,4.807,0,9.614,0,14.421c0,3.579,0,7.158,0,10.737
			c0,1.663-0.011,3.326,0,4.988c0.013,2.062,1.201,3.941,3.181,4.65c0.518,0.185,1.067,0.28,1.617,0.281
			c-2.423,0.013-4.516,1.876-4.771,4.295c-0.126,1.192-0.027,2.436-0.027,3.631c0,3.094,0,6.189,0,9.283c0,4.495,0,8.99,0,13.485
			c0,5.236,0,10.471,0,15.707c0,5.316,0,10.633,0,15.949c0,4.737,0,9.474,0,14.211c0,3.498,0,6.996,0,10.495
			c0,1.599-0.016,3.199,0,4.798c0.021,2.067,1.23,3.944,3.219,4.637C492.564,521.011,493.099,521.101,493.636,521.102z"/>
	</g>
	<g id="POLYLINE_2823_">
		
			<path fill="none" stroke="#3A54F5" stroke-width="3.5" stroke-linecap="round" stroke-linejoin="round" stroke-miterlimit="10" d="
			M256.364,521.102c2.423-0.013,4.516-1.875,4.771-4.295c0.126-1.192,0.027-2.436,0.027-3.631c0-3.094,0-6.189,0-9.283
			c0-4.495,0-8.99,0-13.485c0-5.236,0-10.471,0-15.707c0-5.316,0-10.633,0-15.949c0-4.737,0-9.474,0-14.211
			c0-3.498,0-6.996,0-10.495c0-1.599,0.016-3.199,0-4.798c-0.021-2.067-1.23-3.944-3.219-4.637
			c-0.507-0.177-1.042-0.267-1.578-0.267c2.464-0.014,4.578-1.939,4.781-4.404c0.1-1.216,0.016-2.468,0.016-3.686
			c0-3.171,0-6.343,0-9.514c0-4.584,0-9.169,0-13.753c0-5.331,0-10.662,0-15.993c0-5.411,0-10.822,0-16.233
			c0-4.807,0-9.614,0-14.421c0-3.579,0-7.158,0-10.737c0-1.663,0.011-3.326,0-4.988c-0.013-2.062-1.201-3.941-3.181-4.65
			c-0.518-0.185-1.067-0.28-1.617-0.281c2.423-0.013,4.516-1.876,4.771-4.295c0.126-1.192,0.027-2.436,0.027-3.631
			c0-3.094,0-6.189,0-9.283c0-4.495,0-8.99,0-13.485c0-5.236,0-10.471,0-15.707c0-5.316,0-10.633,0-15.949c0-4.737,0-9.474,0-14.211
			c0-3.498,0-6.996,0-10.495c0-1.599,0.016-3.199,0-4.798c-0.021-2.068-1.231-3.948-3.219-4.646
			c-0.507-0.178-1.042-0.27-1.578-0.272c0.988-0.02,1.941,0.007,2.831-0.482c0.685-0.376,1.245-0.965,1.586-1.668
			c0.361-0.744,0.381-1.523,0.381-2.331c0-1.752,0-3.504,0-5.257c0-1.856,0.431-4.266-0.809-5.847
			c-0.773-0.986-1.914-1.446-3.146-1.453c-2.375-0.014-4.751,0-7.126,0c-5.191,0-10.382,0-15.573,0c-7.004,0-14.009,0-21.013,0
			c-7.903,0-15.805,0-23.708,0c-7.734,0-15.468,0-23.203,0c-6.654,0-13.307,0-19.961,0c-4.57,0-9.14,0-13.709,0
			c-1.199,0-2.399,0-3.598,0c-0.694,0-1.397-0.04-2.07,0.165c-1.606,0.489-2.652,1.973-2.69,3.63c-0.065,2.872,0,5.752,0,8.624
			c0,1.914,0,3.828,0,5.741c0,1.901,0,3.802,0,5.704c0,3.33,0,6.661,0,9.991c0,4.554,0,9.108,0,13.662c0,5.63,0,11.26,0,16.89
			c0,6.452,0,12.904,0,19.355c0,7.134,0,14.268,0,21.403c0,7.608,0,15.216,0,22.824c0,7.868,0,15.736,0,23.604
			c0,8.005,0,16.01,0,24.015c0,7.86,0,15.721,0,23.581c0,7.572,0,15.144,0,22.715c0,7.132,0,14.265,0,21.397
			c0,6.421,0,12.843,0,19.264c0,5.592,0,11.184,0,16.776c0,4.508,0,9.017,0,13.525c0,3.27,0,6.54,0,9.809c0,1.848,0,3.695,0,5.543
			c0,2.18,0,4.359,0,6.539c0,1.86,0,3.72,0,5.58c0,0.887-0.094,1.84,0.048,2.721c0.252,1.565,1.497,2.84,3.056,3.129
			c0.598,0.111,1.243,0.063,1.849,0.063c1.265,0,2.53,0,3.795,0c4.655,0,9.31,0,13.965,0c6.733,0,13.466,0,20.199,0
			c7.758,0,15.516,0,23.274,0c7.866,0,15.731,0,23.597,0c6.972,0,13.944,0,20.915,0c5.087,0,10.173,0,15.26,0
			c2.253,0,4.508,0.028,6.761,0c1.307-0.016,2.516-0.587,3.252-1.693c0.438-0.659,0.625-1.405,0.635-2.192
			c0.019-1.451,0-2.904,0-4.355c0-1.547,0-3.095,0-4.642c0-0.732-0.083-1.432-0.424-2.091
			C259.831,521.401,258.169,521.102,256.364,521.102z"/>
	</g>
	<g id="POLYLINE_2822_">
		
			<rect x="329.465" y="283.944" fill="none" stroke="#3A54F5" stroke-width="3.5" stroke-linecap="round" stroke-linejoin="round" stroke-miterlimit="10" width="91.07" height="182.141"/>
	</g>
</g>
</svg>
