<?xml version="1.0" encoding="utf-8"?>
<!-- Generator: Adobe Illustrator 23.0.3, SVG Export Plug-In . SVG Version: 6.00 Build 0)  -->
<!DOCTYPE svg PUBLIC "-//W3C//DTD SVG 1.1//EN" "http://www.w3.org/Graphics/SVG/1.1/DTD/svg11.dtd" [
	<!ENTITY ns_extend "http://ns.adobe.com/Extensibility/1.0/">
	<!ENTITY ns_ai "http://ns.adobe.com/AdobeIllustrator/10.0/">
	<!ENTITY ns_graphs "http://ns.adobe.com/Graphs/1.0/">
	<!ENTITY ns_vars "http://ns.adobe.com/Variables/1.0/">
	<!ENTITY ns_imrep "http://ns.adobe.com/ImageReplacement/1.0/">
	<!ENTITY ns_sfw "http://ns.adobe.com/SaveForWeb/1.0/">
	<!ENTITY ns_custom "http://ns.adobe.com/GenericCustomNamespace/1.0/">
	<!ENTITY ns_adobe_xpath "http://ns.adobe.com/XPath/1.0/">
]>
<svg version="1.1" xmlns:x="&ns_extend;" xmlns:i="&ns_ai;" xmlns:graph="&ns_graphs;"
	 xmlns="http://www.w3.org/2000/svg" xmlns:xlink="http://www.w3.org/1999/xlink" x="0px" y="0px" viewBox="0 0 750 750"
	 enable-background="new 0 0 750 750" xml:space="preserve">
<metadata>
	<sfw  xmlns="&ns_sfw;">
		<slices></slices>
		<sliceSourceBounds  bottomLeftOrigin="true" height="14392.73" width="8580.937" x="-7101.937" y="-6603.341">
			</sliceSourceBounds>
	</sfw>
</metadata>
<g id="FILL-BACKGROUND">
	<rect fill="#FFFFFF" width="750" height="750"/>
</g>
<g id="N-TEXT">
</g>
<g id="N-DIMENSIONS">
</g>
<g id="AG-PEOPLE">
</g>
<g id="AG-DIAGRAM">
</g>
<g id="AG-DETAILS">
	<g id="POLYLINE_1532_">
		
			<line fill="none" stroke="#3A54F5" stroke-width="2.75" stroke-linecap="round" stroke-linejoin="round" stroke-miterlimit="10" x1="546.12" y1="215.458" x2="598.727" y2="306.577"/>
	</g>
	<g id="POLYLINE_1531_">
		
			<line fill="none" stroke="#3A54F5" stroke-width="2.75" stroke-linecap="round" stroke-linejoin="round" stroke-miterlimit="10" x1="598.727" y1="443.423" x2="546.12" y2="534.542"/>
	</g>
	<g id="POLYLINE_1530_">
		
			<line fill="none" stroke="#3A54F5" stroke-width="2.75" stroke-linecap="round" stroke-linejoin="round" stroke-miterlimit="10" x1="427.607" y1="602.965" x2="322.393" y2="602.965"/>
	</g>
	<g id="POLYLINE_1529_">
		
			<line fill="none" stroke="#3A54F5" stroke-width="2.75" stroke-linecap="round" stroke-linejoin="round" stroke-miterlimit="10" x1="203.88" y1="534.542" x2="151.273" y2="443.423"/>
	</g>
	<g id="POLYLINE_1528_">
		
			<line fill="none" stroke="#3A54F5" stroke-width="2.75" stroke-linecap="round" stroke-linejoin="round" stroke-miterlimit="10" x1="151.273" y1="306.577" x2="203.88" y2="215.458"/>
	</g>
	<g id="POLYLINE_1527_">
		
			<line fill="none" stroke="#3A54F5" stroke-width="2.75" stroke-linecap="round" stroke-linejoin="round" stroke-miterlimit="10" x1="322.393" y1="147.035" x2="427.607" y2="147.035"/>
	</g>
</g>
<g id="AG-DASH">
</g>
<g id="AG-FURNITURE">
</g>
<g id="AG-LAYOUT">
	<g id="POLYLINE_1526_">
		
			<path fill="none" stroke="#3A54F5" stroke-width="3.5" stroke-linecap="round" stroke-linejoin="round" stroke-miterlimit="10" d="
			M532.822,375c-0.142-16.294-2.516-32.418-7.468-47.96c-4.854-15.23-12.041-29.696-21.227-42.776
			c-9.351-13.315-20.781-25.179-33.75-35.005c-12.869-9.751-27.203-17.484-42.405-22.919c-15.044-5.379-30.924-8.427-46.887-9.044
			c-16.326-0.631-32.736,1.299-48.474,5.684c-15.406,4.292-30.144,10.947-43.556,19.659c-13.565,8.811-25.76,19.705-36.026,32.207
			c-10.311,12.557-18.655,26.71-24.663,41.805c-5.887,14.789-9.525,30.474-10.728,46.347c-1.234,16.288,0.053,32.765,3.856,48.653
			c3.739,15.621,9.858,30.647,18.11,44.428c8.252,13.78,18.609,26.269,30.614,36.94c12.211,10.854,26.128,19.767,41.069,26.369
			c14.561,6.434,30.105,10.632,45.922,12.424c16.143,1.83,32.559,1.156,48.496-2.005c15.867-3.147,31.229-8.755,45.4-16.553
			c14.009-7.709,26.84-17.558,37.893-29.115c11.293-11.808,20.743-25.356,27.896-40.048c6.994-14.365,11.798-29.801,14.164-45.603
			C532.225,390.699,532.753,382.872,532.822,375z"/>
	</g>
	<g id="POLYLINE_1525_">
		
			<polyline fill="none" stroke="#3A54F5" stroke-width="3.5" stroke-linecap="round" stroke-linejoin="round" stroke-miterlimit="10" points="
			272.443,255.043 193.756,209.613 141.148,300.731 219.835,346.161 		"/>
	</g>
	<g id="POLYLINE_1429_">
		
			<polyline fill="none" stroke="#3A54F5" stroke-width="3.5" stroke-linecap="round" stroke-linejoin="round" stroke-miterlimit="10" points="
			427.607,226.204 427.607,135.344 322.393,135.344 322.393,226.204 		"/>
	</g>
	<g id="POLYLINE_1428_">
		
			<polyline fill="none" stroke="#3A54F5" stroke-width="3.5" stroke-linecap="round" stroke-linejoin="round" stroke-miterlimit="10" points="
			219.835,403.839 141.148,449.269 193.756,540.387 272.443,494.957 		"/>
	</g>
	<g id="POLYLINE_1427_">
		
			<polyline fill="none" stroke="#3A54F5" stroke-width="3.5" stroke-linecap="round" stroke-linejoin="round" stroke-miterlimit="10" points="
			322.393,523.796 322.393,614.656 427.607,614.656 427.607,523.796 		"/>
	</g>
	<g id="POLYLINE_1426_">
		
			<polyline fill="none" stroke="#3A54F5" stroke-width="3.5" stroke-linecap="round" stroke-linejoin="round" stroke-miterlimit="10" points="
			477.557,494.957 556.244,540.387 608.852,449.269 530.165,403.839 		"/>
	</g>
	<g id="POLYLINE_1425_">
		
			<polyline fill="none" stroke="#3A54F5" stroke-width="3.5" stroke-linecap="round" stroke-linejoin="round" stroke-miterlimit="10" points="
			530.165,346.161 608.852,300.731 556.244,209.613 477.557,255.043 		"/>
	</g>
</g>
<g id="AG-OUTLINE">
	<g id="POLYLINE_949_">
		
			<path fill="none" stroke="#3A54F5" stroke-width="3.5" stroke-linecap="round" stroke-linejoin="round" stroke-miterlimit="10" d="
			M532.822,375c-0.142-16.294-2.516-32.418-7.468-47.96c-4.854-15.23-12.041-29.696-21.227-42.776
			c-9.351-13.315-20.781-25.179-33.75-35.005c-12.869-9.751-27.203-17.484-42.405-22.919c-15.044-5.379-30.924-8.427-46.887-9.044
			c-16.326-0.631-32.736,1.299-48.474,5.684c-15.406,4.292-30.144,10.947-43.556,19.659c-13.565,8.811-25.76,19.705-36.026,32.207
			c-10.311,12.557-18.655,26.71-24.663,41.805c-5.887,14.789-9.525,30.474-10.728,46.347c-1.234,16.288,0.053,32.765,3.856,48.653
			c3.739,15.621,9.858,30.647,18.11,44.428c8.252,13.78,18.609,26.269,30.614,36.94c12.211,10.854,26.128,19.767,41.069,26.369
			c14.561,6.434,30.105,10.632,45.922,12.424c16.143,1.83,32.559,1.156,48.496-2.005c15.867-3.147,31.229-8.755,45.4-16.553
			c14.009-7.709,26.84-17.558,37.893-29.115c11.293-11.808,20.743-25.356,27.896-40.048c6.994-14.365,11.798-29.801,14.164-45.603
			C532.225,390.699,532.753,382.872,532.822,375z"/>
	</g>
</g>
</svg>
